<?xml version="1.0" encoding="utf-8"?>
<!-- Generator: Adobe Illustrator 22.1.0, SVG Export Plug-In . SVG Version: 6.00 Build 0)  -->
<svg version="1.1" id="Livello_1" focusable="false"
	 xmlns="http://www.w3.org/2000/svg" xmlns:xlink="http://www.w3.org/1999/xlink" x="0px" y="0px" viewBox="0 0 448 512"
	 style="enable-background:new 0 0 448 512;" xml:space="preserve">
<style type="text/css">
	.st0{fill:#FFFFFF;}
	.st1{fill:#1877F2;}
</style>
<rect x="107" y="95.9" class="st0" width="265" height="384"/>
<g id="XMLID_1_">
	<g>
		<path class="st1" d="M448,80v352c0,26.5-21.5,48-48,48H262.8V327.7h57.8l11-71.7h-68.8v-46.6c0-19.6,9.6-38.7,40.4-38.7h31.3v-61
			c0,0-28.4-4.8-55.5-4.8c-56.7,0-93.7,34.3-93.7,96.5V256h-63v71.7h63V480H48c-26.5,0-48-21.5-48-48V80c0-26.5,21.5-48,48-48h352
			C426.5,32,448,53.5,448,80z"/>
	</g>
</g>
</svg>
